<?xml version="1.0" encoding="utf-8"?>
<!-- Generator: Adobe Illustrator 25.0.0, SVG Export Plug-In . SVG Version: 6.00 Build 0)  -->
<svg version="1.1" id="Layer_1" xmlns="http://www.w3.org/2000/svg" xmlns:xlink="http://www.w3.org/1999/xlink" x="0px" y="0px"
	 viewBox="0 0 566.4 389.28" style="enable-background:new 0 0 566.4 389.28;" xml:space="preserve">
<style type="text/css">
	.st0{fill:#014188;}
	.st1{fill:#024189;}
	.st2{fill:#024289;}
	.st3{fill:#014189;}
</style>
<g>
	<path class="st0" d="M5.79,280.07c0-89.92,0-179.77,0-269.69c89.93,0,179.83,0,269.79,0c0,17.94,0,35.87,0,53.9
		c-71.94,0-143.84,0-215.8,0c0,53.98,0,107.85,0,161.84c71.89,0,143.79,0,215.78,0c0,18.03,0,35.96,0,53.96
		C185.69,280.07,95.8,280.07,5.79,280.07z"/>
	<path class="st1" d="M324.56,267.16c-7.12-6.3-7.91-15.33-4.5-22.04c3.39-6.67,10.97-10.75,18.04-9.72
		c8.6,1.25,14.24,6.78,15.89,15.64c50.03,0,100.07,0,150.24,0c-0.03-4.61,1.32-8.81,4.4-12.37c3.06-3.53,6.94-5.55,11.63-6.17
		c0-58.65,0-117.27,0-176c-4.09-0.52-7.69-2.18-10.65-5.12c-2.93-2.91-4.64-6.44-5.22-10.62c-0.47,0-0.9,0-1.33,0
		c-59.29,0-118.59,0-177.88-0.02c-0.97,0-1.41,0.21-1.74,1.22c-2.77,8.66-11.56,13.87-20.42,12.17c-8.99-1.72-15.27-9.9-14.62-19.02
		c0.65-9.02,8.21-16.37,17.13-16.65c9.44-0.3,17.35,6.28,18.62,15.49c0.11,0.78,0.18,1.58,0.27,2.43c59.95,0,119.91,0,179.95,0
		c0.85-5.52,3.54-9.92,8.28-12.97c3.48-2.24,7.33-3.14,11.43-2.71c8.56,0.9,15.37,7.43,16.13,16.34
		c0.85,10.06-6.35,18.27-15.95,19.49c0,58.61,0,117.23,0,175.94c5.39,0.75,9.72,3.32,12.89,7.8c3.11,4.39,3.57,9.42,2.97,14.45
		c-0.25,2.08-1.8,4.15-3.17,5.92c-1.42,1.83-3.13,3.59-5.07,4.82c-1.93,1.24-4.23,2.14-6.49,2.58c-8.51,1.65-17.46-3.22-20.46-12.57
		c-50.27,0-100.55,0-150.93,0c-0.97,6.07-4.03,10.77-9.52,13.68c-5.46,2.89-11.03,2.76-16.66,0.14c-0.21,0.4-0.41,0.77-0.59,1.16
		c-15.02,31.14-30.04,62.29-45.07,93.42c-0.39,0.8-0.45,1.45-0.11,2.33c1.74,4.63-0.74,9.78-5.4,11.52
		c-4.95,1.84-10-1.17-11.53-5.47c-1.65-4.66,0.82-9.84,5.48-11.5c0.37-0.13,0.76-0.23,1.17-0.36c0-18.07,0-36.13,0-54.27
		c-2.61-0.67-4.69-2.1-6.02-4.5c-1-1.81-1.38-3.75-1.01-5.78c0.82-4.47,4.47-7.56,8.89-7.55c4.4,0.01,8.05,3.13,8.87,7.59
		c0.81,4.4-1.73,8.23-6.81,10.23c0,18.08,0,36.18,0,54.25c1.07,0.48,2.11,0.95,3.23,1.45C294.13,330.28,309.35,298.71,324.56,267.16
		z"/>
	<path class="st1" d="M80.39,100.56c6.75,0,13.41,0,20.24,0c4.46,22.53,10.76,44.69,13.18,67.63c2.48-22.93,8.68-45.11,13.25-67.62
		c7.04,0,13.94,0,20.96,0c4.28,22.15,9.68,44.07,12.77,66.46c2.93-22.42,8.2-44.35,12.94-66.44c6.63,0,13.25,0,20,0
		c-0.53,2.24-1.05,4.45-1.57,6.65c-7.02,29.25-14.03,58.49-21.04,87.74c-0.15,0.63-0.23,1.07-1.09,1.07
		c-6.52-0.04-13.03-0.02-19.55-0.03c-0.12,0-0.23-0.03-0.56-0.09c-4.26-21.68-10.36-43.06-12.7-64.54
		c-4.05,21.12-8.21,42.84-12.38,64.58c-7.4,0-14.58,0-21.85,0C95.45,164.17,87.93,132.4,80.39,100.56z"/>
	<path class="st1" d="M203.43,100.56c6.51,0,12.9,0,19.47,0c0,0.46,0,0.92,0,1.38c0,20.71-0.01,41.41,0.01,62.12
		c0,2,0,4.02,0.32,5.98c0.82,5.09,3.75,8.47,8.75,9.85c4.4,1.21,8.79,1.11,13.02-0.71c4.1-1.76,6.39-5,6.86-9.38
		c0.3-2.77,0.31-5.58,0.31-8.38c0.02-19.79,0.01-39.57,0.01-59.36c0-0.47,0-0.94,0-1.48c6.48,0,12.86,0,19.31,0
		c0.02,0.27,0.06,0.54,0.06,0.81c0,22.5,0,45.01-0.02,67.51c0,3.24-0.23,6.46-1.25,9.58c-2.34,7.11-7.34,11.74-13.93,14.83
		c-6.21,2.92-12.82,3.76-19.61,3.64c-6.57-0.11-13-0.98-18.96-3.91c-8.57-4.21-13.48-11.01-14.13-20.66
		c-0.13-1.87-0.2-3.75-0.21-5.63c-0.01-21.55-0.01-43.09-0.01-64.64C203.43,101.65,203.43,101.17,203.43,100.56z"/>
	<path class="st2" d="M353.05,196.96c-3.94,0-7.84,0.02-11.75-0.04c-0.31-0.01-0.72-0.54-0.92-0.91
		c-4.86-9.21-9.72-18.41-14.53-27.65c-7.53-14.47-15.04-28.96-22.49-43.47c-1.46-2.83-2.64-5.81-3.95-8.72
		c-0.12-0.27-0.25-0.53-0.46-0.77c1.8,27.14,0.96,54.31,1.69,81.5c-4.12,0-8.06,0-12.05,0c0-32.26,0-64.47,0-96.74
		c0.28-0.03,0.55-0.09,0.82-0.09c3.88-0.01,7.76,0.01,11.63-0.02c0.62,0,1,0.13,1.31,0.73c11.06,21.27,22.21,42.49,33.18,63.81
		c2.64,5.13,4.71,10.55,7.05,15.84c0.17,0.39,0.34,0.78,0.62,1.15c-1.7-27.12-1.13-54.26-1.61-81.45c0.33-0.03,0.52-0.07,0.71-0.07
		c3.55,0,7.1,0,10.73,0C353.05,132.39,353.05,164.62,353.05,196.96z"/>
	<path class="st1" d="M454.69,158.55c0,12.91,0,25.69,0,38.56c-3.79,0-7.52,0-11.3,0c0-32.33,0-64.64,0-97.03
		c0.31-0.02,0.57-0.04,0.84-0.04c9.15,0,18.31-0.06,27.46,0.03c5.61,0.05,11.24,0.45,16.42,2.8c9.24,4.19,14.62,11.36,15.68,21.54
		c0.64,6.13,0,12.15-2.53,17.82c-3.67,8.23-10.28,13-18.84,15.02c-3.5,0.83-7.18,1.11-10.79,1.24
		C466.04,158.7,460.44,158.55,454.69,158.55z M454.72,109.79c0,13.18,0,26.16,0,39.18c0.33,0.03,0.6,0.08,0.87,0.08
		c5.28,0,10.56,0.05,15.83-0.03c1.91-0.03,3.85-0.19,5.71-0.6c6.58-1.44,11.29-5.09,13.16-11.8c0.96-3.43,0.96-6.94,0.58-10.47
		c-0.92-8.55-5.42-13.55-13.83-15.37C469.68,109.2,462.23,110.1,454.72,109.79z"/>
	<path class="st3" d="M377.38,196.17c0-32.37,0-64.66,0-97.02c3.81,0,7.59,0,11.51,0c0,29.05,0,58.12,0,87.31
		c12.84,0,25.54,0,38.45,0c-0.52,3.31-1.02,6.48-1.53,9.71C409.69,196.17,393.59,196.17,377.38,196.17z"/>
	<path class="st2" d="M225.3,93.78c-4.94-0.03-8.92-4.08-8.92-9.07c0.01-4.91,4.11-8.94,9.08-8.91c4.94,0.03,8.95,4.11,8.92,9.07
		C234.35,89.81,230.27,93.81,225.3,93.78z"/>
	<path class="st2" d="M243.5,84.7c0.01-4.91,4.12-8.94,9.08-8.9c4.94,0.03,8.94,4.12,8.91,9.08c-0.04,4.94-4.12,8.94-9.08,8.91
		C247.46,93.75,243.49,89.69,243.5,84.7z"/>
</g>
</svg>
